<svg id="Group_5" data-name="Group 5" xmlns="http://www.w3.org/2000/svg" xmlns:xlink="http://www.w3.org/1999/xlink" width="58.892" height="93.454" viewBox="0 0 58.892 93.454">
  <defs>
    <clipPath id="clip-path">
      <rect id="Rectangle_3" data-name="Rectangle 3" width="58.892" height="93.454" fill="none"/>
    </clipPath>
  </defs>
  <g id="Group_3" data-name="Group 3" clip-path="url(#clip-path)">
    <path id="Path_1" data-name="Path 1" d="M21.714,45.062l1.057-.982q4.421-4.8,8.843-9.591l.615-.665c1.316-1.446,2.532-2.746,3.7-4.087l1.257-1.357c1.629-1.753,3.088-3.29,4.5-4.866l.876-.887c3.567-3.789,6.966-7.392,10.353-11.007.378-.4.658-.256,1,.022q6,4.84,12.007,9.659c.407.325.419.523.106.928-4.08,5.3-7.992,10.719-12.359,15.793-5.031,5.846-10.228,11.5-16.8,15.69-.943.6-.951,1.415-.106,2.383,9.282,10.627,18.454,21.359,29.015,30.78.39.348.452.546.077.978q-4.725,5.44-9.39,10.933c-.468.551-.782.577-1.283.053-6.162-6.432-12.741-12.453-18.585-19.2-5.613-6.482-11.415-12.8-17.118-19.2-1.839-2.066-3.623-4.181-5.274-6.4-.208-.28-.565-.515-.116-.978q3.844-3.961,7.617-7.988" transform="translate(-10.74 -8.603)" fill="#eddf3e"/>
    <path id="Path_2" data-name="Path 2" d="M2.207,41.848C14.8,28.654,27.042,15.13,39.559,1.865A6.59,6.59,0,0,1,42.038,0h1.278a11.9,11.9,0,0,1,1.377.835Q51.45,6.252,58.183,11.7a1.363,1.363,0,0,1,.268,2.2C54.168,19.35,50.2,25.037,45.7,30.314c-4.607,5.4-9.316,10.676-15.043,14.943-.6.448-1.67.762-1.674,1.378,0,.575.872,1.16,1.368,1.734C39.107,58.491,48,68.486,58.032,77.392c.929.825.942,1.456.123,2.411q-4.66,5.436-9.317,10.874a9.007,9.007,0,0,1-3.151,2.776h-1.46c-.423-.417-1.012-.587-1.434-1.024-6.268-6.492-12.947-12.576-18.822-19.461-6.234-7.3-12.9-14.235-19.124-21.55A51.156,51.156,0,0,1,.494,45.808c-.734-1.154-.663-1.592.294-2.543.475-.471.958-.934,1.419-1.418m1.264,3.577c1.65,2.223,3.435,4.338,5.274,6.4,5.7,6.4,11.505,12.722,17.118,19.2,5.844,6.75,12.424,12.771,18.585,19.2.5.523.816.5,1.284-.053q4.665-5.492,9.39-10.933c.375-.432.314-.63-.076-.978C44.485,68.85,35.312,58.118,26.03,47.491c-.845-.967-.836-1.781.106-2.382,6.57-4.194,11.767-9.844,16.8-15.69,4.367-5.074,8.28-10.5,12.359-15.793.312-.405.3-.6-.106-.928q-6.02-4.809-12.007-9.659c-.344-.278-.624-.425-1-.022-3.387,3.615-6.786,7.218-10.353,11.007l-.875.887c-1.416,1.576-2.875,3.113-4.5,4.866l-1.257,1.358c-1.169,1.341-2.385,2.641-3.7,4.086l-.615.665q-4.41,4.806-8.843,9.591l-1.057.982q-3.786,4.015-7.617,7.988c-.45.463-.093.7.116.978" transform="translate(0 0.001)"/>
  </g>
</svg>
