<svg id="Group_4" data-name="Group 4" xmlns="http://www.w3.org/2000/svg" xmlns:xlink="http://www.w3.org/1999/xlink" width="32.897" height="56" viewBox="0 0 32.897 56">
  <defs>
    <clipPath id="clip-path">
      <rect id="Rectangle_2" data-name="Rectangle 2" width="32.897" height="56" fill="#183d27"/>
    </clipPath>
  </defs>
  <g id="Group_3" data-name="Group 3" clip-path="url(#clip-path)">
    <path id="Path_2" data-name="Path 2" d="M14.015,27.649a2.512,2.512,0,0,1,1.139-1.78,53.017,53.017,0,0,0,9.8-9.421C26.95,14.13,28.841,11.624,30.67,9.2c.726-.963,1.472-1.95,2.226-2.93l-.651-.53c-1.309-1.065-2.663-2.167-4.007-3.219-.436-.342-.852-.692-1.255-1.031A23.212,23.212,0,0,0,25.089,0c-2.3,2.475-4.6,4.927-7.143,7.644-2.018,2.154-4.057,4.362-6.028,6.5C8.053,18.325,4.063,22.646,0,26.81c.2.281.429.581.7.919C4.154,31.965,7.9,36.1,11.522,40.1c1.847,2.041,3.758,4.151,5.613,6.257,1.923,2.182,4.075,4.283,6.157,6.316,1.011.987,2.056,2.007,3.072,3.034.113.114.213.21.3.289a.391.391,0,0,0,.057-.053c1.686-1.983,3.407-3.99,5.071-5.931l1.01-1.178A220.182,220.182,0,0,1,14.695,29.676a2.526,2.526,0,0,1-.679-2.026" fill="#183d27"/>
  </g>
</svg>
